<svg width="34" height="43" viewBox="0 0 34 43" fill="none" xmlns="http://www.w3.org/2000/svg">
<path d="M14.0002 18.5C14.0002 17.21 13.1902 16.089 12.2002 15.263C11.0157 14.2765 10.164 12.9489 9.76092 11.461C9.35785 9.97315 9.42306 8.3972 9.94765 6.94769C10.4722 5.49818 11.4307 4.24552 12.6927 3.36021C13.9546 2.47491 15.4587 1.99995 17.0002 2C18.5415 2.0002 20.0453 2.47525 21.307 3.36051C22.5687 4.24577 23.527 5.49824 24.0515 6.94752C24.5761 8.39679 24.6414 9.97249 24.2386 11.4602C23.8357 12.9479 22.9843 14.2754 21.8002 15.262C20.8102 16.089 20.0002 17.21 20.0002 18.5M14.0002 18.5H20.0002M14.0002 18.5V20.5C14.0002 20.8978 14.1583 21.2794 14.4396 21.5607C14.7209 21.842 15.1024 22 15.5002 22H18.5002C18.8981 22 19.2796 21.842 19.5609 21.5607C19.8422 21.2794 20.0002 20.8978 20.0002 20.5V18.5" stroke="#006B81" stroke-width="1.5" stroke-linecap="round" stroke-linejoin="round"/>
<path d="M15 8C15 6.987 15.895 6 17 6C18.105 6 19 6.82 19 7.833C19 8.198 18.884 8.538 18.683 8.824C18.085 9.676 17 10.488 17 11.5M16.992 14H17.001" stroke="#006B81" stroke-width="1.5" stroke-linecap="round" stroke-linejoin="round"/>
<path d="M8.50071 37.2727H9.6598L10.6314 38.5511L10.8871 38.892L12.3359 40.8182H11.1768L10.2223 39.5398L9.98366 39.2159L8.50071 37.2727ZM12.6939 35.6364C12.6939 36.5568 12.5277 37.3523 12.1953 38.0227C11.8629 38.6932 11.407 39.2102 10.8274 39.5739C10.2479 39.9375 9.58594 40.1193 8.84162 40.1193C8.0973 40.1193 7.43537 39.9375 6.85582 39.5739C6.27628 39.2102 5.82031 38.6932 5.48793 38.0227C5.15554 37.3523 4.98935 36.5568 4.98935 35.6364C4.98935 34.7159 5.15554 33.9205 5.48793 33.25C5.82031 32.5795 6.27628 32.0625 6.85582 31.6989C7.43537 31.3352 8.0973 31.1534 8.84162 31.1534C9.58594 31.1534 10.2479 31.3352 10.8274 31.6989C11.407 32.0625 11.8629 32.5795 12.1953 33.25C12.5277 33.9205 12.6939 34.7159 12.6939 35.6364ZM11.6712 35.6364C11.6712 34.8807 11.5447 34.2429 11.2919 33.723C11.0419 33.2031 10.7024 32.8097 10.2734 32.5426C9.8473 32.2756 9.37003 32.142 8.84162 32.142C8.31321 32.142 7.83452 32.2756 7.40554 32.5426C6.9794 32.8097 6.63991 33.2031 6.38707 33.723C6.13707 34.2429 6.01207 34.8807 6.01207 35.6364C6.01207 36.392 6.13707 37.0298 6.38707 37.5497C6.63991 38.0696 6.9794 38.4631 7.40554 38.7301C7.83452 38.9972 8.31321 39.1307 8.84162 39.1307C9.37003 39.1307 9.8473 38.9972 10.2734 38.7301C10.7024 38.4631 11.0419 38.0696 11.2919 37.5497C11.5447 37.0298 11.6712 36.392 11.6712 35.6364ZM18.4595 37.3239V33.4545H19.4652V40H18.4595V38.892H18.3913C18.2379 39.2244 17.9993 39.5071 17.6754 39.7401C17.3516 39.9702 16.9425 40.0852 16.4482 40.0852C16.0391 40.0852 15.6754 39.9957 15.3572 39.8168C15.0391 39.6349 14.7891 39.3622 14.6072 38.9986C14.4254 38.6321 14.3345 38.1705 14.3345 37.6136V33.4545H15.3402V37.5455C15.3402 38.0227 15.4737 38.4034 15.7408 38.6875C16.0107 38.9716 16.3544 39.1136 16.772 39.1136C17.022 39.1136 17.2763 39.0497 17.5348 38.9219C17.7962 38.794 18.0149 38.598 18.1911 38.3338C18.37 38.0696 18.4595 37.733 18.4595 37.3239ZM21.3072 40V33.4545H22.3129V40H21.3072ZM21.8185 32.3636C21.6225 32.3636 21.4535 32.2969 21.3114 32.1634C21.1722 32.0298 21.1026 31.8693 21.1026 31.6818C21.1026 31.4943 21.1722 31.3338 21.3114 31.2003C21.4535 31.0668 21.6225 31 21.8185 31C22.0146 31 22.1822 31.0668 22.3214 31.2003C22.4634 31.3338 22.5344 31.4943 22.5344 31.6818C22.5344 31.8693 22.4634 32.0298 22.3214 32.1634C22.1822 32.2969 22.0146 32.3636 21.8185 32.3636ZM23.9673 40V39.233L27.6832 34.4602V34.392H24.0866V33.4545H28.9787V34.2557L25.3651 38.9943V39.0625H29.098V40H23.9673Z" fill="#006B81"/>
</svg>
