<svg width="35" height="43" viewBox="0 0 35 43" fill="none" xmlns="http://www.w3.org/2000/svg">
<path d="M11.578 15.482C10.163 16.324 6.45296 18.044 8.71296 20.197C9.81596 21.248 11.045 22 12.59 22H21.408C22.954 22 24.183 21.248 25.286 20.197C27.546 18.044 23.836 16.324 22.421 15.482C20.7788 14.5119 18.9063 14.0001 16.999 14.0001C15.0916 14.0001 13.2202 14.5119 11.578 15.482ZM21.5 6.5C21.5 7.69347 21.0259 8.83807 20.1819 9.68198C19.338 10.5259 18.1934 11 17 11C15.8065 11 14.6619 10.5259 13.818 9.68198C12.9741 8.83807 12.5 7.69347 12.5 6.5C12.5 5.30653 12.9741 4.16193 13.818 3.31802C14.6619 2.47411 15.8065 2 17 2C18.1934 2 19.338 2.47411 20.1819 3.31802C21.0259 4.16193 21.5 5.30653 21.5 6.5Z" stroke="#006B81" stroke-width="1.5" stroke-linecap="round" stroke-linejoin="round"/>
<path d="M0.0333807 40V31.2727H2.98224C3.6669 31.2727 4.22656 31.3963 4.66122 31.6435C5.09872 31.8878 5.42259 32.2188 5.63281 32.6364C5.84304 33.054 5.94815 33.5199 5.94815 34.0341C5.94815 34.5483 5.84304 35.0156 5.63281 35.4361C5.42543 35.8565 5.1044 36.1918 4.66974 36.4418C4.23509 36.6889 3.67827 36.8125 2.99929 36.8125H0.885653V35.875H2.9652C3.43395 35.875 3.81037 35.794 4.09446 35.6321C4.37855 35.4702 4.58452 35.2514 4.71236 34.9759C4.84304 34.6974 4.90838 34.3835 4.90838 34.0341C4.90838 33.6847 4.84304 33.3722 4.71236 33.0966C4.58452 32.821 4.37713 32.6051 4.0902 32.4489C3.80327 32.2898 3.42259 32.2102 2.94815 32.2102H1.0902V40H0.0333807ZM7.5142 40V33.4545H8.4858V34.4432H8.55398C8.6733 34.1193 8.8892 33.8565 9.2017 33.6548C9.5142 33.4531 9.86648 33.3523 10.2585 33.3523C10.3324 33.3523 10.4247 33.3537 10.5355 33.3565C10.6463 33.3594 10.7301 33.3636 10.7869 33.3693V34.392C10.7528 34.3835 10.6747 34.3707 10.5526 34.3537C10.4332 34.3338 10.3068 34.3239 10.1733 34.3239C9.85511 34.3239 9.57102 34.3906 9.32102 34.5241C9.07386 34.6548 8.87784 34.8366 8.73295 35.0696C8.59091 35.2997 8.51989 35.5625 8.51989 35.858V40H7.5142ZM14.4389 40.1364C13.848 40.1364 13.3295 39.9957 12.8835 39.7145C12.4403 39.4332 12.0938 39.0398 11.8438 38.5341C11.5966 38.0284 11.473 37.4375 11.473 36.7614C11.473 36.0795 11.5966 35.4844 11.8438 34.9759C12.0938 34.4673 12.4403 34.0724 12.8835 33.7912C13.3295 33.5099 13.848 33.3693 14.4389 33.3693C15.0298 33.3693 15.5469 33.5099 15.9901 33.7912C16.4361 34.0724 16.7827 34.4673 17.0298 34.9759C17.2798 35.4844 17.4048 36.0795 17.4048 36.7614C17.4048 37.4375 17.2798 38.0284 17.0298 38.5341C16.7827 39.0398 16.4361 39.4332 15.9901 39.7145C15.5469 39.9957 15.0298 40.1364 14.4389 40.1364ZM14.4389 39.233C14.8878 39.233 15.2571 39.1179 15.5469 38.8878C15.8366 38.6577 16.0511 38.3551 16.1903 37.9801C16.3295 37.6051 16.3991 37.1989 16.3991 36.7614C16.3991 36.3239 16.3295 35.9162 16.1903 35.5384C16.0511 35.1605 15.8366 34.8551 15.5469 34.6222C15.2571 34.3892 14.8878 34.2727 14.4389 34.2727C13.9901 34.2727 13.6207 34.3892 13.331 34.6222C13.0412 34.8551 12.8267 35.1605 12.6875 35.5384C12.5483 35.9162 12.4787 36.3239 12.4787 36.7614C12.4787 37.1989 12.5483 37.6051 12.6875 37.9801C12.8267 38.3551 13.0412 38.6577 13.331 38.8878C13.6207 39.1179 13.9901 39.233 14.4389 39.233ZM21.8548 33.4545V34.3068H18.3263V33.4545H21.8548ZM19.3832 40V32.5511C19.3832 32.1761 19.4712 31.8636 19.6474 31.6136C19.8235 31.3636 20.0522 31.1761 20.3335 31.0511C20.6147 30.9261 20.9116 30.8636 21.2241 30.8636C21.4712 30.8636 21.6729 30.8835 21.8292 30.9233C21.9854 30.9631 22.1019 31 22.1786 31.0341L21.8888 31.9034C21.8377 31.8864 21.7667 31.8651 21.6758 31.8395C21.5877 31.8139 21.4712 31.8011 21.3263 31.8011C20.994 31.8011 20.7539 31.8849 20.6062 32.0526C20.4613 32.2202 20.3888 32.4659 20.3888 32.7898V40H19.3832ZM23.2642 40V33.4545H24.2699V40H23.2642ZM23.7756 32.3636C23.5795 32.3636 23.4105 32.2969 23.2685 32.1634C23.1293 32.0298 23.0597 31.8693 23.0597 31.6818C23.0597 31.4943 23.1293 31.3338 23.2685 31.2003C23.4105 31.0668 23.5795 31 23.7756 31C23.9716 31 24.1392 31.0668 24.2784 31.2003C24.4205 31.3338 24.4915 31.4943 24.4915 31.6818C24.4915 31.8693 24.4205 32.0298 24.2784 32.1634C24.1392 32.2969 23.9716 32.3636 23.7756 32.3636ZM27.1175 31.2727V40H26.1119V31.2727H27.1175ZM31.7038 40.1364C31.0732 40.1364 30.5291 39.9972 30.0717 39.7188C29.6172 39.4375 29.2663 39.0455 29.0192 38.5426C28.7749 38.0369 28.6527 37.4489 28.6527 36.7784C28.6527 36.108 28.7749 35.517 29.0192 35.0057C29.2663 34.4915 29.6101 34.0909 30.0504 33.804C30.4936 33.5142 31.0107 33.3693 31.6016 33.3693C31.9425 33.3693 32.2791 33.4261 32.6115 33.5398C32.9439 33.6534 33.2464 33.8381 33.5192 34.0938C33.7919 34.3466 34.0092 34.6818 34.1712 35.0994C34.3331 35.517 34.4141 36.0312 34.4141 36.642V37.0682H29.3686V36.1989H33.3913C33.3913 35.8295 33.3175 35.5 33.1697 35.2102C33.0249 34.9205 32.8175 34.6918 32.5476 34.5241C32.2805 34.3565 31.9652 34.2727 31.6016 34.2727C31.201 34.2727 30.8544 34.3722 30.5618 34.571C30.272 34.767 30.049 35.0227 29.8928 35.3381C29.7365 35.6534 29.6584 35.9915 29.6584 36.3523V36.9318C29.6584 37.4261 29.7436 37.8452 29.9141 38.1889C30.0874 38.5298 30.3274 38.7898 30.6342 38.9688C30.9411 39.1449 31.2976 39.233 31.7038 39.233C31.968 39.233 32.2067 39.196 32.4197 39.1222C32.6357 39.0455 32.8217 38.9318 32.978 38.7812C33.1342 38.6278 33.255 38.4375 33.3402 38.2102L34.3118 38.483C34.2095 38.8125 34.0376 39.1023 33.7962 39.3523C33.5547 39.5994 33.2564 39.7926 32.9013 39.9318C32.5462 40.0682 32.147 40.1364 31.7038 40.1364Z" fill="#006B81"/>
</svg>
