<svg width="60" height="60" viewBox="0 0 60 60" fill="none" xmlns="http://www.w3.org/2000/svg">
<circle cx="30" cy="30" r="30" fill="#F4F4F4"/>
<path d="M36 25.375V33.625C36 35.4484 35.2757 37.197 33.9864 38.4864C32.697 39.7757 30.9484 40.5 29.125 40.5C27.3016 40.5 25.553 39.7757 24.2636 38.4864C22.9743 37.197 22.25 35.4484 22.25 33.625V28.125L26.375 32.25" stroke="#006B81" stroke-width="2" stroke-linecap="round" stroke-linejoin="round"/>
<path d="M36 19.875C36.7293 19.875 37.4288 20.1647 37.9445 20.6805C38.4603 21.1962 38.75 21.8957 38.75 22.625C38.75 23.3543 38.4603 24.0538 37.9445 24.5695C37.4288 25.0853 36.7293 25.375 36 25.375C35.2707 25.375 34.5712 25.0853 34.0555 24.5695C33.5397 24.0538 33.25 23.3543 33.25 22.625C33.25 21.8957 33.5397 21.1962 34.0555 20.6805C34.5712 20.1647 35.2707 19.875 36 19.875ZM36 19.875V17.125" stroke="#006B81" stroke-width="2" stroke-linecap="round" stroke-linejoin="round"/>
</svg>
