<svg width="40" height="40" viewBox="0 0 40 40" fill="none" xmlns="http://www.w3.org/2000/svg">
<path d="M29.1298 20H29.1665C30.1514 20 31.1267 20.1939 32.0366 20.5709C32.9466 20.9478 33.7734 21.5002 34.4698 22.1967C35.1662 22.8931 35.7187 23.7199 36.0956 24.6298C36.4725 25.5398 36.6665 26.515 36.6665 27.5C36.6665 28.4849 36.4725 29.4601 36.0956 30.3701C35.7187 31.28 35.1662 32.1068 34.4698 32.8033C33.7734 33.4997 32.9466 34.0521 32.0366 34.429C31.1267 34.806 30.1514 35 29.1665 35H11.6665C9.52541 35.0004 7.46631 34.1767 5.91624 32.6997C4.36617 31.2227 3.44407 29.2057 3.34118 27.0671C3.23829 24.9285 3.9625 22.8323 5.36362 21.2133C6.76475 19.5943 8.73526 18.5767 10.8665 18.3716M29.1298 20C29.1532 19.7255 29.1654 19.4477 29.1665 19.1666C29.1701 16.8019 28.2598 14.5273 26.6257 12.818C24.9916 11.1088 22.7602 10.0971 20.3977 9.99449C18.0352 9.89185 15.7245 10.7062 13.9483 12.2673C12.1721 13.8284 11.0679 16.0155 10.8665 18.3716M29.1298 20C28.9621 21.8357 28.2447 23.5782 27.0715 25M10.8665 18.3716C11.1298 18.3461 11.3965 18.3333 11.6665 18.3333C13.5432 18.3333 15.2748 18.9533 16.6665 20" stroke="#042024" stroke-width="1.5" stroke-linecap="round" stroke-linejoin="round"/>
<path d="M4.93301 16.99C3.69801 12.4533 6.43301 7.79 11.0397 6.57333M4.93301 16.99L3.33301 17.4117M4.93301 16.99C5.23967 18.1183 5.76301 19.1317 6.44634 20M11.0397 6.57333L10.6113 5M11.0397 6.57333C12.6517 6.14507 14.3528 6.18997 15.941 6.69958C17.5291 7.20918 18.9378 8.16375 19.9997 9.45M5.79467 10.5383L4.10634 9.57667M18.568 5.76167L17.5947 7.425" stroke="#042024" stroke-width="1.5" stroke-linecap="round" stroke-linejoin="round"/>
</svg>
