<svg width="292" height="59" viewBox="0 0 292 59" fill="none" xmlns="http://www.w3.org/2000/svg">
<path d="M9.52 13.6V24.88H19.72V13.8H26.28V41H19.72V30.08H9.52V41H2.96V13.6H9.52ZM44.1369 13.2C48.4835 13.2 51.7369 14.5733 53.8969 17.32C56.0835 20.04 57.1769 23.3467 57.1769 27.24C57.1769 31.4533 56.0302 34.8933 53.7369 37.56C51.4435 40.2267 48.2435 41.56 44.1369 41.56C39.8169 41.56 36.5635 40.2 34.3769 37.48C32.2169 34.7333 31.1369 31.4133 31.1369 27.52C31.1369 23.3333 32.2969 19.9067 34.6169 17.24C36.9369 14.5733 40.1102 13.2267 44.1369 13.2ZM44.0969 36.08C46.0702 36.08 47.6035 35.3467 48.6969 33.88C49.8169 32.4133 50.3769 30.2 50.3769 27.24C50.3769 24.76 49.8835 22.72 48.8969 21.12C47.9369 19.52 46.3769 18.72 44.2169 18.72C42.2969 18.72 40.7635 19.52 39.6169 21.12C38.4702 22.72 37.8969 24.84 37.8969 27.48C37.8969 29.96 38.3769 32.0133 39.3369 33.64C40.3235 35.2667 41.9102 36.08 44.0969 36.08ZM73.8244 13.2C78.171 13.2 81.4244 14.5733 83.5844 17.32C85.771 20.04 86.8644 23.3467 86.8644 27.24C86.8644 31.4533 85.7177 34.8933 83.4244 37.56C81.131 40.2267 77.931 41.56 73.8244 41.56C69.5044 41.56 66.251 40.2 64.0644 37.48C61.9044 34.7333 60.8244 31.4133 60.8244 27.52C60.8244 23.3333 61.9844 19.9067 64.3044 17.24C66.6244 14.5733 69.7977 13.2267 73.8244 13.2ZM73.7844 36.08C75.7577 36.08 77.291 35.3467 78.3844 33.88C79.5044 32.4133 80.0644 30.2 80.0644 27.24C80.0644 24.76 79.571 22.72 78.5844 21.12C77.6244 19.52 76.0644 18.72 73.9044 18.72C71.9844 18.72 70.451 19.52 69.3044 21.12C68.1577 22.72 67.5844 24.84 67.5844 27.48C67.5844 29.96 68.0644 32.0133 69.0244 33.64C70.011 35.2667 71.5977 36.08 73.7844 36.08ZM98.0319 13.8V23.92L108.712 13.2L113.752 16.92L104.912 25.8L116.032 41H107.712L100.312 30.4L98.0319 32.72V41H91.4719V13.8H98.0319ZM123.616 15.36C123.616 16.9067 123.042 18.44 121.896 19.96C120.776 21.48 119.376 22.6 117.696 23.32L116.376 20.4C116.856 20.0533 117.322 19.6667 117.776 19.24C118.229 18.7867 118.522 18.3067 118.656 17.8C118.176 17.6133 117.736 17.24 117.336 16.68C116.936 16.0933 116.736 15.4533 116.736 14.76C116.736 13.9333 117.069 13.16 117.736 12.44C118.402 11.6933 119.216 11.32 120.176 11.32C121.136 11.32 121.949 11.6933 122.616 12.44C123.282 13.1867 123.616 14.16 123.616 15.36ZM150.983 13.8V41H144.743C142.877 38.4133 140.997 35.7733 139.103 33.08C137.237 30.3867 135.383 27.7467 133.543 25.16V41H126.983V13.8H133.223L144.423 29.96V13.8H150.983ZM161.584 15.36C161.584 16.9067 161.011 18.44 159.864 19.96C158.744 21.48 157.344 22.6 155.664 23.32L154.344 20.4C154.824 20.0533 155.291 19.6667 155.744 19.24C156.198 18.7867 156.491 18.3067 156.624 17.8C156.144 17.6133 155.704 17.24 155.304 16.68C154.904 16.0933 154.704 15.4533 154.704 14.76C154.704 13.9333 155.038 13.16 155.704 12.44C156.371 11.6933 157.184 11.32 158.144 11.32C159.104 11.32 159.918 11.6933 160.584 12.44C161.251 13.1867 161.584 14.16 161.584 15.36ZM176.712 18.68C174.899 18.68 173.432 19.48 172.312 21.08C171.192 22.68 170.632 24.8133 170.632 27.48C170.632 30.04 171.166 32.12 172.232 33.72C173.326 35.32 174.832 36.12 176.752 36.12C177.819 36.12 178.806 35.9867 179.712 35.72C180.619 35.4533 181.446 35.12 182.192 34.72L184.672 39.6C183.632 40.2133 182.379 40.68 180.912 41C179.446 41.3467 178.059 41.52 176.752 41.52C172.406 41.52 169.166 40.2 167.032 37.56C164.899 34.92 163.832 31.5733 163.832 27.52C163.832 23.3333 164.966 19.92 167.232 17.28C169.526 14.6133 172.686 13.28 176.712 13.28C177.859 13.28 179.152 13.4533 180.592 13.8C182.059 14.1467 183.339 14.6667 184.432 15.36L182.472 19.84C181.112 19.4133 180.059 19.12 179.312 18.96C178.566 18.7733 177.699 18.68 176.712 18.68ZM199.775 21.96L196.855 30.08H202.815L199.775 21.96ZM203.055 13.8L213.335 40.28L206.855 41L204.735 35.28H195.015L192.935 41H186.415L196.735 13.8H203.055ZM214.031 13.8H236.871C237.004 14.68 237.124 15.5467 237.231 16.4C237.364 17.2533 237.498 18.12 237.631 19H228.711V41H222.151V19H214.031V13.8ZM252.689 18.68C250.875 18.68 249.409 19.48 248.289 21.08C247.169 22.68 246.609 24.8133 246.609 27.48C246.609 30.04 247.142 32.12 248.209 33.72C249.302 35.32 250.809 36.12 252.729 36.12C253.795 36.12 254.782 35.9867 255.689 35.72C256.595 35.4533 257.422 35.12 258.169 34.72L260.649 39.6C259.609 40.2133 258.355 40.68 256.889 41C255.422 41.3467 254.035 41.52 252.729 41.52C248.382 41.52 245.142 40.2 243.009 37.56C240.875 34.92 239.809 31.5733 239.809 27.52C239.809 23.3333 240.942 19.92 243.209 17.28C245.502 14.6133 248.662 13.28 252.689 13.28C253.835 13.28 255.129 13.4533 256.569 13.8C258.035 14.1467 259.315 14.6667 260.409 15.36L258.449 19.84C257.089 19.4133 256.035 19.12 255.289 18.96C254.542 18.7733 253.675 18.68 252.689 18.68ZM271.551 13.6V24.88H281.751V13.8H288.311V41H281.751V30.08H271.551V41H264.991V13.6H271.551Z" fill="#042024"/>
<path d="M74.3333 40.875V48.125C74.3333 49.7273 73.8285 51.2641 72.9299 52.3971C72.0313 53.5301 70.8125 54.1667 69.5417 54.1667C68.2708 54.1667 67.0521 53.5301 66.1534 52.3971C65.2548 51.2641 64.75 49.7273 64.75 48.125V43.2917L67.625 46.9167" stroke="#042024" stroke-width="1.75" stroke-linecap="round" stroke-linejoin="round"/>
<path d="M74.3334 36.0417C74.8417 36.0417 75.3292 36.2963 75.6886 36.7495C76.0481 37.2027 76.25 37.8174 76.25 38.4583C76.25 39.0993 76.0481 39.714 75.6886 40.1672C75.3292 40.6204 74.8417 40.875 74.3334 40.875C73.825 40.875 73.3375 40.6204 72.9781 40.1672C72.6186 39.714 72.4167 39.0993 72.4167 38.4583C72.4167 37.8174 72.6186 37.2027 72.9781 36.7495C73.3375 36.2963 73.825 36.0417 74.3334 36.0417ZM74.3334 36.0417V33.625" stroke="#042024" stroke-width="1.75" stroke-linecap="round" stroke-linejoin="round"/>
</svg>
