<svg width="34" height="43" viewBox="0 0 34 43" fill="none" xmlns="http://www.w3.org/2000/svg">
<path d="M17 18V15M7.35204 13.214C6.99804 10.916 6.82204 9.768 7.25604 8.749C7.69004 7.73 8.65404 7.034 10.581 5.641L12.021 4.6C14.418 2.867 15.617 2 17.001 2C18.383 2 19.581 2.867 21.979 4.6L23.419 5.641C25.346 7.034 26.309 7.731 26.744 8.749C27.178 9.768 27.002 10.916 26.649 13.213L26.348 15.173C25.848 18.429 25.597 20.057 24.429 21.029C23.261 22.001 21.554 22 18.14 22H15.86C12.445 22 10.738 22 9.57004 21.029C8.40204 20.057 8.15204 18.429 7.65204 15.172L7.35204 13.214Z" stroke="#8D8D8D" stroke-width="1.5" stroke-linecap="round" stroke-linejoin="round"/>
<path d="M1.3283 40V31.2727H2.38512V35.1591H7.03853V31.2727H8.09535V40H7.03853V36.0966H2.38512V40H1.3283ZM12.7338 40.1364C12.1429 40.1364 11.6245 39.9957 11.1784 39.7145C10.7353 39.4332 10.3887 39.0398 10.1387 38.5341C9.89151 38.0284 9.76793 37.4375 9.76793 36.7614C9.76793 36.0795 9.89151 35.4844 10.1387 34.9759C10.3887 34.4673 10.7353 34.0724 11.1784 33.7912C11.6245 33.5099 12.1429 33.3693 12.7338 33.3693C13.3248 33.3693 13.8418 33.5099 14.285 33.7912C14.731 34.0724 15.0776 34.4673 15.3248 34.9759C15.5748 35.4844 15.6998 36.0795 15.6998 36.7614C15.6998 37.4375 15.5748 38.0284 15.3248 38.5341C15.0776 39.0398 14.731 39.4332 14.285 39.7145C13.8418 39.9957 13.3248 40.1364 12.7338 40.1364ZM12.7338 39.233C13.1827 39.233 13.552 39.1179 13.8418 38.8878C14.1316 38.6577 14.3461 38.3551 14.4853 37.9801C14.6245 37.6051 14.6941 37.1989 14.6941 36.7614C14.6941 36.3239 14.6245 35.9162 14.4853 35.5384C14.3461 35.1605 14.1316 34.8551 13.8418 34.6222C13.552 34.3892 13.1827 34.2727 12.7338 34.2727C12.285 34.2727 11.9157 34.3892 11.6259 34.6222C11.3361 34.8551 11.1216 35.1605 10.9824 35.5384C10.8432 35.9162 10.7736 36.3239 10.7736 36.7614C10.7736 37.1989 10.8432 37.6051 10.9824 37.9801C11.1216 38.3551 11.3361 38.6577 11.6259 38.8878C11.9157 39.1179 12.285 39.233 12.7338 39.233ZM17.2349 40V33.4545H18.2065V34.4773H18.2917C18.4281 34.1278 18.6483 33.8565 18.9522 33.6634C19.2562 33.4673 19.6213 33.3693 20.0474 33.3693C20.4792 33.3693 20.8386 33.4673 21.1255 33.6634C21.4153 33.8565 21.6412 34.1278 21.8031 34.4773H21.8713C22.0389 34.1392 22.2903 33.8707 22.6255 33.6719C22.9608 33.4702 23.3627 33.3693 23.8315 33.3693C24.4167 33.3693 24.8954 33.5526 25.2676 33.919C25.6397 34.2827 25.8258 34.8494 25.8258 35.6193V40H24.8201V35.6193C24.8201 35.1364 24.688 34.7912 24.4238 34.5838C24.1596 34.3764 23.8485 34.2727 23.4906 34.2727C23.0304 34.2727 22.6738 34.4119 22.421 34.6903C22.1681 34.9659 22.0417 35.3153 22.0417 35.7386V40H21.019V35.517C21.019 35.1449 20.8983 34.8452 20.6568 34.6179C20.4153 34.3878 20.1042 34.2727 19.7235 34.2727C19.4622 34.2727 19.2179 34.3423 18.9906 34.4815C18.7662 34.6207 18.5843 34.8139 18.4451 35.0611C18.3088 35.3054 18.2406 35.5881 18.2406 35.9091V40H17.2349ZM30.4089 40.1364C29.7782 40.1364 29.2342 39.9972 28.7768 39.7188C28.3223 39.4375 27.9714 39.0455 27.7243 38.5426C27.4799 38.0369 27.3578 37.4489 27.3578 36.7784C27.3578 36.108 27.4799 35.517 27.7243 35.0057C27.9714 34.4915 28.3152 34.0909 28.7555 33.804C29.1987 33.5142 29.7157 33.3693 30.3066 33.3693C30.6475 33.3693 30.9842 33.4261 31.3166 33.5398C31.649 33.6534 31.9515 33.8381 32.2243 34.0938C32.497 34.3466 32.7143 34.6818 32.8762 35.0994C33.0382 35.517 33.1191 36.0312 33.1191 36.642V37.0682H28.0737V36.1989H32.0964C32.0964 35.8295 32.0225 35.5 31.8748 35.2102C31.7299 34.9205 31.5225 34.6918 31.2527 34.5241C30.9856 34.3565 30.6703 34.2727 30.3066 34.2727C29.9061 34.2727 29.5595 34.3722 29.2669 34.571C28.9771 34.767 28.7541 35.0227 28.5978 35.3381C28.4416 35.6534 28.3635 35.9915 28.3635 36.3523V36.9318C28.3635 37.4261 28.4487 37.8452 28.6191 38.1889C28.7924 38.5298 29.0325 38.7898 29.3393 38.9688C29.6461 39.1449 30.0027 39.233 30.4089 39.233C30.6731 39.233 30.9118 39.196 31.1248 39.1222C31.3407 39.0455 31.5268 38.9318 31.6831 38.7812C31.8393 38.6278 31.96 38.4375 32.0453 38.2102L33.0169 38.483C32.9146 38.8125 32.7427 39.1023 32.5012 39.3523C32.2598 39.5994 31.9615 39.7926 31.6064 39.9318C31.2512 40.0682 30.8521 40.1364 30.4089 40.1364Z" fill="#8D8D8D"/>
</svg>
