<svg width="35" height="43" viewBox="0 0 35 43" fill="none" xmlns="http://www.w3.org/2000/svg">
<path d="M12 17.975C12.129 19.283 12.42 20.164 13.077 20.821C14.256 22 16.154 22 19.949 22C23.744 22 25.642 22 26.821 20.82C28 19.643 28 17.745 28 13.95C28 10.155 28 8.25698 26.82 7.07798C26.164 6.42098 25.283 6.12998 23.974 6.00098" stroke="#8D8D8D" stroke-width="1.5" stroke-linecap="round" stroke-linejoin="round"/>
<path d="M8 10C8 6.229 8 4.343 9.172 3.172C10.344 2.001 12.229 2 16 2C19.771 2 21.657 2 22.828 3.172C23.999 4.344 24 6.229 24 10C24 13.771 24 15.657 22.828 16.828C21.656 17.999 19.771 18 16 18C12.229 18 10.343 18 9.172 16.828C8.001 15.656 8 13.771 8 10Z" stroke="#8D8D8D" stroke-width="1.5" stroke-linecap="round" stroke-linejoin="round"/>
<path d="M8 11.119C8.62095 11.041 9.24617 11.0019 9.872 11.002C12.524 10.953 15.111 11.676 17.172 13.042C19.081 14.31 20.424 16.053 21 18M19 7H19.009" stroke="#8D8D8D" stroke-width="1.5" stroke-linecap="round" stroke-linejoin="round"/>
<path d="M1.50852 40H0.400568L3.60511 31.2727H4.69602L7.90057 40H6.79261L4.18466 32.6534H4.11648L1.50852 40ZM1.91761 36.5909H6.38352V37.5284H1.91761V36.5909ZM10.1293 31.2727V40H9.12358V31.2727H10.1293ZM12.1076 40V31.2727H13.1133V34.4943H13.1985C13.2724 34.3807 13.3746 34.2358 13.5053 34.0597C13.6388 33.8807 13.8292 33.7216 14.0763 33.5824C14.3263 33.4403 14.6644 33.3693 15.0906 33.3693C15.6417 33.3693 16.1275 33.5071 16.5479 33.7827C16.9684 34.0582 17.2965 34.4489 17.5323 34.9545C17.7681 35.4602 17.886 36.0568 17.886 36.7443C17.886 37.4375 17.7681 38.0384 17.5323 38.5469C17.2965 39.0526 16.9698 39.4446 16.5522 39.723C16.1346 39.9986 15.6531 40.1364 15.1076 40.1364C14.6871 40.1364 14.3505 40.0668 14.0977 39.9276C13.8448 39.7855 13.6502 39.625 13.5138 39.446C13.3775 39.2642 13.2724 39.1136 13.1985 38.9943H13.0792V40H12.1076ZM13.0962 36.7273C13.0962 37.2216 13.1687 37.6577 13.3136 38.0355C13.4585 38.4105 13.6701 38.7045 13.9485 38.9176C14.2269 39.1278 14.5678 39.233 14.9712 39.233C15.3917 39.233 15.7425 39.1222 16.0238 38.9006C16.3079 38.6761 16.521 38.375 16.663 37.9972C16.8079 37.6165 16.8803 37.1932 16.8803 36.7273C16.8803 36.267 16.8093 35.8523 16.6673 35.483C16.5281 35.1108 16.3164 34.8168 16.0323 34.6009C15.7511 34.3821 15.3974 34.2727 14.9712 34.2727C14.5621 34.2727 14.2184 34.3764 13.94 34.5838C13.6616 34.7884 13.4513 35.0753 13.3093 35.4446C13.1673 35.8111 13.0962 36.2386 13.0962 36.7273ZM23.5494 37.3239V33.4545H24.555V40H23.5494V38.892H23.4812C23.3278 39.2244 23.0891 39.5071 22.7653 39.7401C22.4414 39.9702 22.0323 40.0852 21.538 40.0852C21.1289 40.0852 20.7653 39.9957 20.4471 39.8168C20.1289 39.6349 19.8789 39.3622 19.6971 38.9986C19.5153 38.6321 19.4244 38.1705 19.4244 37.6136V33.4545H20.43V37.5455C20.43 38.0227 20.5636 38.4034 20.8306 38.6875C21.1005 38.9716 21.4442 39.1136 21.8619 39.1136C22.1119 39.1136 22.3661 39.0497 22.6246 38.9219C22.886 38.794 23.1048 38.598 23.2809 38.3338C23.4599 38.0696 23.5494 37.733 23.5494 37.3239ZM26.397 40V33.4545H27.3686V34.4773H27.4538C27.5902 34.1278 27.8104 33.8565 28.1143 33.6634C28.4183 33.4673 28.7834 33.3693 29.2095 33.3693C29.6413 33.3693 30.0007 33.4673 30.2876 33.6634C30.5774 33.8565 30.8033 34.1278 30.9652 34.4773H31.0334C31.201 34.1392 31.4524 33.8707 31.7876 33.6719C32.1229 33.4702 32.5249 33.3693 32.9936 33.3693C33.5788 33.3693 34.0575 33.5526 34.4297 33.919C34.8018 34.2827 34.9879 34.8494 34.9879 35.6193V40H33.9822V35.6193C33.9822 35.1364 33.8501 34.7912 33.5859 34.5838C33.3217 34.3764 33.0107 34.2727 32.6527 34.2727C32.1925 34.2727 31.8359 34.4119 31.5831 34.6903C31.3303 34.9659 31.2038 35.3153 31.2038 35.7386V40H30.1811V35.517C30.1811 35.1449 30.0604 34.8452 29.8189 34.6179C29.5774 34.3878 29.2663 34.2727 28.8857 34.2727C28.6243 34.2727 28.38 34.3423 28.1527 34.4815C27.9283 34.6207 27.7464 34.8139 27.6072 35.0611C27.4709 35.3054 27.4027 35.5881 27.4027 35.9091V40H26.397Z" fill="#8D8D8D"/>
</svg>
