<svg width="69" height="30" viewBox="0 0 69 30" fill="none" xmlns="http://www.w3.org/2000/svg">
<rect width="69" height="30" rx="15" fill="#00B8D4"/>
<path d="M12.6136 19.6321C12 19.6321 11.4645 19.4915 11.0071 19.2102C10.5497 18.929 10.1946 18.5355 9.94176 18.0298C9.68892 17.5241 9.5625 16.9332 9.5625 16.2571C9.5625 15.5781 9.68892 14.9844 9.94176 14.4759C10.1946 13.9673 10.5497 13.5724 11.0071 13.2912C11.4645 13.0099 12 12.8693 12.6136 12.8693C13.2273 12.8693 13.7628 13.0099 14.2202 13.2912C14.6776 13.5724 15.0327 13.9673 15.2855 14.4759C15.5384 14.9844 15.6648 15.5781 15.6648 16.2571C15.6648 16.9332 15.5384 17.5241 15.2855 18.0298C15.0327 18.5355 14.6776 18.929 14.2202 19.2102C13.7628 19.4915 13.2273 19.6321 12.6136 19.6321ZM12.6179 18.5625C13.0156 18.5625 13.3452 18.4574 13.6065 18.2472C13.8679 18.0369 14.0611 17.7571 14.1861 17.4077C14.3139 17.0582 14.3778 16.6733 14.3778 16.2528C14.3778 15.8352 14.3139 15.4517 14.1861 15.1023C14.0611 14.75 13.8679 14.4673 13.6065 14.2543C13.3452 14.0412 13.0156 13.9347 12.6179 13.9347C12.2173 13.9347 11.8849 14.0412 11.6207 14.2543C11.3594 14.4673 11.1648 14.75 11.0369 15.1023C10.9119 15.4517 10.8494 15.8352 10.8494 16.2528C10.8494 16.6733 10.9119 17.0582 11.0369 17.4077C11.1648 17.7571 11.3594 18.0369 11.6207 18.2472C11.8849 18.4574 12.2173 18.5625 12.6179 18.5625ZM18.3612 15.6136V19.5H17.087V12.9545H18.31V14.0199H18.391C18.5415 13.6733 18.7773 13.3949 19.0984 13.1847C19.4222 12.9744 19.8299 12.8693 20.3214 12.8693C20.7674 12.8693 21.158 12.9631 21.4933 13.1506C21.8285 13.3352 22.0884 13.6108 22.2731 13.9773C22.4577 14.3437 22.5501 14.7969 22.5501 15.3366V19.5H21.2759V15.4901C21.2759 15.0156 21.1523 14.6449 20.9052 14.3778C20.658 14.108 20.3185 13.973 19.8867 13.973C19.5913 13.973 19.3285 14.0369 19.0984 14.1648C18.8711 14.2926 18.6907 14.4801 18.5572 14.7273C18.4265 14.9716 18.3612 15.267 18.3612 15.6136Z" fill="white"/>
<rect x="31" width="38" height="30" rx="15" fill="#042024"/>
<path d="M45.1136 19.6321C44.5 19.6321 43.9645 19.4915 43.5071 19.2102C43.0497 18.929 42.6946 18.5355 42.4418 18.0298C42.1889 17.5241 42.0625 16.9332 42.0625 16.2571C42.0625 15.5781 42.1889 14.9844 42.4418 14.4759C42.6946 13.9673 43.0497 13.5724 43.5071 13.2912C43.9645 13.0099 44.5 12.8693 45.1136 12.8693C45.7273 12.8693 46.2628 13.0099 46.7202 13.2912C47.1776 13.5724 47.5327 13.9673 47.7855 14.4759C48.0384 14.9844 48.1648 15.5781 48.1648 16.2571C48.1648 16.9332 48.0384 17.5241 47.7855 18.0298C47.5327 18.5355 47.1776 18.929 46.7202 19.2102C46.2628 19.4915 45.7273 19.6321 45.1136 19.6321ZM45.1179 18.5625C45.5156 18.5625 45.8452 18.4574 46.1065 18.2472C46.3679 18.0369 46.5611 17.7571 46.6861 17.4077C46.8139 17.0582 46.8778 16.6733 46.8778 16.2528C46.8778 15.8352 46.8139 15.4517 46.6861 15.1023C46.5611 14.75 46.3679 14.4673 46.1065 14.2543C45.8452 14.0412 45.5156 13.9347 45.1179 13.9347C44.7173 13.9347 44.3849 14.0412 44.1207 14.2543C43.8594 14.4673 43.6648 14.75 43.5369 15.1023C43.4119 15.4517 43.3494 15.8352 43.3494 16.2528C43.3494 16.6733 43.4119 17.0582 43.5369 17.4077C43.6648 17.7571 43.8594 18.0369 44.1207 18.2472C44.3849 18.4574 44.7173 18.5625 45.1179 18.5625ZM52.7021 12.9545V13.9773H49.0032V12.9545H52.7021ZM50.0174 19.5V12.196C50.0174 11.7869 50.1069 11.4474 50.2859 11.1776C50.4648 10.9048 50.7021 10.7017 50.9975 10.5682C51.293 10.4318 51.614 10.3636 51.9606 10.3636C52.2163 10.3636 52.435 10.3849 52.6168 10.4276C52.7987 10.4673 52.9336 10.5043 53.0217 10.5384L52.7234 11.5696C52.6637 11.5526 52.587 11.5327 52.4933 11.5099C52.3995 11.4844 52.2859 11.4716 52.1523 11.4716C51.8427 11.4716 51.6211 11.5483 51.4876 11.7017C51.3569 11.8551 51.2915 12.0767 51.2915 12.3665V19.5H50.0174ZM57.1317 12.9545V13.9773H53.4329V12.9545H57.1317ZM54.4471 19.5V12.196C54.4471 11.7869 54.5366 11.4474 54.7156 11.1776C54.8945 10.9048 55.1317 10.7017 55.4272 10.5682C55.7227 10.4318 56.0437 10.3636 56.3903 10.3636C56.646 10.3636 56.8647 10.3849 57.0465 10.4276C57.2283 10.4673 57.3633 10.5043 57.4513 10.5384L57.1531 11.5696C57.0934 11.5526 57.0167 11.5327 56.9229 11.5099C56.8292 11.4844 56.7156 11.4716 56.582 11.4716C56.2724 11.4716 56.0508 11.5483 55.9173 11.7017C55.7866 11.8551 55.7212 12.0767 55.7212 12.3665V19.5H54.4471Z" fill="white"/>
</svg>
