<svg width="69" height="30" viewBox="0 0 69 30" fill="none" xmlns="http://www.w3.org/2000/svg">
<rect width="69" height="30" rx="15" fill="#00B8D4"/>
<path d="M46.6136 19.6321C46 19.6321 45.4645 19.4915 45.0071 19.2102C44.5497 18.929 44.1946 18.5355 43.9418 18.0298C43.6889 17.5241 43.5625 16.9332 43.5625 16.2571C43.5625 15.5781 43.6889 14.9844 43.9418 14.4759C44.1946 13.9673 44.5497 13.5724 45.0071 13.2912C45.4645 13.0099 46 12.8693 46.6136 12.8693C47.2273 12.8693 47.7628 13.0099 48.2202 13.2912C48.6776 13.5724 49.0327 13.9673 49.2855 14.4759C49.5384 14.9844 49.6648 15.5781 49.6648 16.2571C49.6648 16.9332 49.5384 17.5241 49.2855 18.0298C49.0327 18.5355 48.6776 18.929 48.2202 19.2102C47.7628 19.4915 47.2273 19.6321 46.6136 19.6321ZM46.6179 18.5625C47.0156 18.5625 47.3452 18.4574 47.6065 18.2472C47.8679 18.0369 48.0611 17.7571 48.1861 17.4077C48.3139 17.0582 48.3778 16.6733 48.3778 16.2528C48.3778 15.8352 48.3139 15.4517 48.1861 15.1023C48.0611 14.75 47.8679 14.4673 47.6065 14.2543C47.3452 14.0412 47.0156 13.9347 46.6179 13.9347C46.2173 13.9347 45.8849 14.0412 45.6207 14.2543C45.3594 14.4673 45.1648 14.75 45.0369 15.1023C44.9119 15.4517 44.8494 15.8352 44.8494 16.2528C44.8494 16.6733 44.9119 17.0582 45.0369 17.4077C45.1648 17.7571 45.3594 18.0369 45.6207 18.2472C45.8849 18.4574 46.2173 18.5625 46.6179 18.5625ZM54.2021 12.9545V13.9773H50.5032V12.9545H54.2021ZM51.5174 19.5V12.196C51.5174 11.7869 51.6069 11.4474 51.7859 11.1776C51.9648 10.9048 52.2021 10.7017 52.4975 10.5682C52.793 10.4318 53.114 10.3636 53.4606 10.3636C53.7163 10.3636 53.935 10.3849 54.1168 10.4276C54.2987 10.4673 54.4336 10.5043 54.5217 10.5384L54.2234 11.5696C54.1637 11.5526 54.087 11.5327 53.9933 11.5099C53.8995 11.4844 53.7859 11.4716 53.6523 11.4716C53.3427 11.4716 53.1211 11.5483 52.9876 11.7017C52.8569 11.8551 52.7915 12.0767 52.7915 12.3665V19.5H51.5174ZM58.6317 12.9545V13.9773H54.9329V12.9545H58.6317ZM55.9471 19.5V12.196C55.9471 11.7869 56.0366 11.4474 56.2156 11.1776C56.3945 10.9048 56.6317 10.7017 56.9272 10.5682C57.2227 10.4318 57.5437 10.3636 57.8903 10.3636C58.146 10.3636 58.3647 10.3849 58.5465 10.4276C58.7283 10.4673 58.8633 10.5043 58.9513 10.5384L58.6531 11.5696C58.5934 11.5526 58.5167 11.5327 58.4229 11.5099C58.3292 11.4844 58.2156 11.4716 58.082 11.4716C57.7724 11.4716 57.5508 11.5483 57.4173 11.7017C57.2866 11.8551 57.2212 12.0767 57.2212 12.3665V19.5H55.9471Z" fill="white"/>
<rect width="38" height="30" rx="15" fill="#042024"/>
<path d="M15.1136 19.6321C14.5 19.6321 13.9645 19.4915 13.5071 19.2102C13.0497 18.929 12.6946 18.5355 12.4418 18.0298C12.1889 17.5241 12.0625 16.9332 12.0625 16.2571C12.0625 15.5781 12.1889 14.9844 12.4418 14.4759C12.6946 13.9673 13.0497 13.5724 13.5071 13.2912C13.9645 13.0099 14.5 12.8693 15.1136 12.8693C15.7273 12.8693 16.2628 13.0099 16.7202 13.2912C17.1776 13.5724 17.5327 13.9673 17.7855 14.4759C18.0384 14.9844 18.1648 15.5781 18.1648 16.2571C18.1648 16.9332 18.0384 17.5241 17.7855 18.0298C17.5327 18.5355 17.1776 18.929 16.7202 19.2102C16.2628 19.4915 15.7273 19.6321 15.1136 19.6321ZM15.1179 18.5625C15.5156 18.5625 15.8452 18.4574 16.1065 18.2472C16.3679 18.0369 16.5611 17.7571 16.6861 17.4077C16.8139 17.0582 16.8778 16.6733 16.8778 16.2528C16.8778 15.8352 16.8139 15.4517 16.6861 15.1023C16.5611 14.75 16.3679 14.4673 16.1065 14.2543C15.8452 14.0412 15.5156 13.9347 15.1179 13.9347C14.7173 13.9347 14.3849 14.0412 14.1207 14.2543C13.8594 14.4673 13.6648 14.75 13.5369 15.1023C13.4119 15.4517 13.3494 15.8352 13.3494 16.2528C13.3494 16.6733 13.4119 17.0582 13.5369 17.4077C13.6648 17.7571 13.8594 18.0369 14.1207 18.2472C14.3849 18.4574 14.7173 18.5625 15.1179 18.5625ZM20.8612 15.6136V19.5H19.587V12.9545H20.81V14.0199H20.891C21.0415 13.6733 21.2773 13.3949 21.5984 13.1847C21.9222 12.9744 22.3299 12.8693 22.8214 12.8693C23.2674 12.8693 23.658 12.9631 23.9933 13.1506C24.3285 13.3352 24.5884 13.6108 24.7731 13.9773C24.9577 14.3437 25.0501 14.7969 25.0501 15.3366V19.5H23.7759V15.4901C23.7759 15.0156 23.6523 14.6449 23.4052 14.3778C23.158 14.108 22.8185 13.973 22.3867 13.973C22.0913 13.973 21.8285 14.0369 21.5984 14.1648C21.3711 14.2926 21.1907 14.4801 21.0572 14.7273C20.9265 14.9716 20.8612 15.267 20.8612 15.6136Z" fill="white"/>
</svg>
