<svg width="34" height="34" viewBox="0 0 34 34" fill="none" xmlns="http://www.w3.org/2000/svg">
<rect x="1.25" y="1.25" width="31.5" height="31.5" rx="15.75" fill="#F4F4F4"/>
<rect x="1.25" y="1.25" width="31.5" height="31.5" rx="15.75" stroke="#042024" stroke-width="1.5"/>
<path d="M18.7763 12.7373L19.7693 11.7449C20.0326 11.4817 20.3897 11.3337 20.7621 11.3337C21.1344 11.3337 21.4915 11.4817 21.7548 11.7449C22.0181 12.0082 22.166 12.3653 22.166 12.7377C22.166 13.11 22.0181 13.4671 21.7548 13.7304L20.7624 14.7235M18.7763 12.7373L12.9438 18.5697C12.2036 19.3106 11.8332 19.6804 11.581 20.1316C11.3288 20.5828 11.0753 21.6474 10.833 22.6667C11.8516 22.4245 12.9169 22.1709 13.3681 21.9187C13.8193 21.6666 14.1898 21.2961 14.93 20.5559L20.7624 14.7235M18.7763 12.7373L20.7624 14.7235M15.7913 22.6667H20.0413" stroke="#042024" stroke-linecap="round" stroke-linejoin="round"/>
</svg>
