<svg width="16" height="16" viewBox="0 0 16 16" fill="none" xmlns="http://www.w3.org/2000/svg">
<path d="M9.66659 5.99992C9.66659 6.44195 9.49099 6.86587 9.17843 7.17843C8.86587 7.49099 8.44195 7.66659 7.99992 7.66659C7.55789 7.66659 7.13397 7.49099 6.82141 7.17843C6.50885 6.86587 6.33325 6.44195 6.33325 5.99992C6.33325 5.55789 6.50885 5.13397 6.82141 4.82141C7.13397 4.50885 7.55789 4.33325 7.99992 4.33325C8.44195 4.33325 8.86587 4.50885 9.17843 4.82141C9.49099 5.13397 9.66659 5.55789 9.66659 5.99992Z" stroke="#042024" stroke-opacity="0.6" stroke-linecap="round" stroke-linejoin="round"/>
<path d="M12 13.3333C12 14.0699 10.2093 14.6666 7.99999 14.6666C5.79066 14.6666 3.99999 14.0699 3.99999 13.3333M8.83799 11.6626C8.61281 11.8792 8.31248 12.0003 7.99999 12.0003C7.68751 12.0003 7.38718 11.8792 7.16199 11.6626C5.10266 9.66725 2.34333 7.43858 3.68866 4.20259C4.41733 2.45259 6.16399 1.33325 7.99999 1.33325C9.83599 1.33325 11.5833 2.45325 12.3113 4.20259C13.6553 7.43392 10.9027 9.67392 8.83799 11.6626Z" stroke="#042024" stroke-opacity="0.6" stroke-linecap="round" stroke-linejoin="round"/>
</svg>
