<svg width="40" height="40" viewBox="0 0 40 40" fill="none" xmlns="http://www.w3.org/2000/svg">
<path d="M24.2435 8.25826C24.3685 8.77493 24.4018 9.32326 24.3252 9.88493L22.9552 19.9583M24.2435 8.25826C23.1902 3.91326 16.8102 3.91326 15.7568 8.25826M24.2435 8.25826C26.8552 5.57826 31.5435 8.2466 31.6668 11.5983M15.7568 8.25826C15.6318 8.77493 15.6002 9.32326 15.6752 9.88493L17.0452 19.9583M15.7568 8.25826C13.1452 5.57826 8.45683 8.2466 8.3335 11.5999C8.22016 14.6666 10.3168 18.7833 12.1702 21.6316M31.6668 11.5983C33.3335 11.8783 36.6668 13.4399 36.6668 17.4516C36.6668 21.0733 32.3218 24.8999 28.0285 27.9416C27.0585 28.6283 26.5735 28.9716 26.2618 29.2216C25.3896 29.9018 24.6156 30.6994 23.9618 31.5916C23.7218 31.9083 23.4735 32.2833 22.9768 33.0299L22.5902 33.6133C22.3063 34.0402 21.9214 34.3904 21.4695 34.6327C21.0176 34.8749 20.5129 35.0016 20.0002 35.0016C19.4875 35.0016 18.9827 34.8749 18.5308 34.6327C18.079 34.3904 17.694 34.0402 17.4102 33.6133L17.0235 33.0299C16.709 32.5416 16.3811 32.0619 16.0402 31.5916C15.3854 30.6991 14.6102 29.9016 13.7368 29.2216C13.4268 28.9716 12.9418 28.6283 11.9718 27.9416C7.6785 24.8999 3.3335 21.0749 3.3335 17.4499C3.3335 13.4383 6.66683 11.8766 8.3335 11.5966M31.6668 11.5983C31.7802 14.6649 29.6835 18.7799 27.8302 21.6283" stroke="#042024" stroke-width="1.5" stroke-linecap="round" stroke-linejoin="round"/>
<path d="M30 26.6665L28.735 32.9898C28.6218 33.5564 28.3158 34.0662 27.8692 34.4326C27.4225 34.7991 26.8627 34.9995 26.285 34.9998H13.7167C13.1386 34.9999 12.5785 34.7996 12.1315 34.4331C11.6845 34.0667 11.3783 33.5566 11.265 32.9898L10 26.6665" stroke="#042024" stroke-width="1.5" stroke-linecap="round" stroke-linejoin="round"/>
</svg>
