<svg width="40" height="40" viewBox="0 0 40 40" fill="none" xmlns="http://www.w3.org/2000/svg">
<path d="M10.0002 30C7.65683 28.4383 6.34183 26.6083 5.65683 24.9133C5.17683 23.73 4.93683 23.1367 5.43183 22.4017C5.9285 21.6667 6.73016 21.6667 8.3335 21.6667H31.6668C33.2702 21.6667 34.0718 21.6667 34.5668 22.4017C35.0635 23.1367 34.8235 23.73 34.3435 24.9133C33.6568 26.6083 32.3435 28.4367 30.0002 30M23.3335 21.6667V3.33333M3.3335 35H36.6668M26.4035 5.775L29.8502 10.5167C31.2985 12.5067 32.0218 13.5017 31.4918 14.25C30.9618 14.9983 29.5352 15 26.6802 15H17.7135C14.0702 15 12.2468 15 11.7685 14.1017C11.2885 13.205 12.5368 12.1317 15.0352 9.985L20.5518 5.24333C22.0935 3.92 22.8652 3.25667 23.7785 3.34C24.6935 3.42333 25.2618 4.20833 26.4035 5.775Z" stroke="#042024" stroke-width="1.5" stroke-linecap="round" stroke-linejoin="round"/>
</svg>
