<svg width="17" height="17" viewBox="0 0 17 17" fill="none" xmlns="http://www.w3.org/2000/svg">
<path d="M10.7763 4.23732L11.7693 3.24494C12.0326 2.98165 12.3897 2.83374 12.7621 2.83374C13.1344 2.83374 13.4915 2.98165 13.7548 3.24494C14.0181 3.50823 14.166 3.86533 14.166 4.23767C14.166 4.61002 14.0181 4.96711 13.7548 5.2304L12.7624 6.22348M10.7763 4.23732L4.94384 10.0697C4.20363 10.8106 3.83317 11.1804 3.58101 11.6316C3.32884 12.0828 3.07526 13.1474 2.83301 14.1667C3.85159 13.9245 4.91692 13.6709 5.36813 13.4187C5.81934 13.1666 6.1898 12.7961 6.93001 12.0559L12.7624 6.22348M10.7763 4.23732L12.7624 6.22348M7.79134 14.1667H12.0413" stroke="#042024" stroke-linecap="round" stroke-linejoin="round"/>
</svg>
