<svg width="24" height="24" viewBox="0 0 24 24" fill="none" xmlns="http://www.w3.org/2000/svg">
<path d="M17.0004 10.8051C17.0004 10.4591 17.0004 10.2861 17.0524 10.1321C17.2034 9.68412 17.6024 9.51112 18.0024 9.32912C18.4504 9.12412 18.6744 9.02212 18.8974 9.00412C19.1494 8.98412 19.4024 9.03812 19.6184 9.15912C19.9044 9.31912 20.1044 9.62512 20.3084 9.87312C21.2514 11.0191 21.7234 11.5921 21.8954 12.2231C22.0354 12.7331 22.0354 13.2671 21.8954 13.7761C21.6444 14.6981 20.8494 15.4701 20.2604 16.1861C19.9594 16.5511 19.8084 16.7341 19.6184 16.8411C19.3987 16.963 19.1478 17.0169 18.8974 16.9961C18.6744 16.9781 18.4504 16.8761 18.0014 16.6711C17.6014 16.4891 17.2034 16.3161 17.0524 15.8681C17.0004 15.7141 17.0004 15.5411 17.0004 15.1951V10.8051ZM7.0004 10.8051C7.0004 10.3691 6.9884 9.97812 6.6364 9.67212C6.5084 9.56112 6.3384 9.48412 5.9994 9.32912C5.5504 9.12512 5.3264 9.02212 5.1034 9.00412C4.4364 8.95012 4.0774 9.40612 3.6934 9.87412C2.7494 11.0191 2.2774 11.5921 2.1044 12.2241C1.9652 12.7324 1.9652 13.2688 2.1044 13.7771C2.3564 14.6981 3.1524 15.4711 3.7404 16.1861C4.1114 16.6361 4.4664 17.0471 5.1034 16.9961C5.3264 16.9781 5.5504 16.8761 5.9994 16.6711C6.3394 16.5171 6.5084 16.4391 6.6364 16.3281C6.9884 16.0221 7.0004 15.6311 7.0004 15.1961V10.8051Z" stroke="#042024" stroke-width="1.5" stroke-linecap="round" stroke-linejoin="round"/>
<path d="M5 9C5 5.686 8.134 3 12 3C15.866 3 19 5.686 19 9M19 17V17.8C19 19.567 17.21 21 15 21H13" stroke="#042024" stroke-width="1.5" stroke-linecap="round" stroke-linejoin="round"/>
</svg>
