<svg width="24" height="24" viewBox="0 0 24 24" fill="none" xmlns="http://www.w3.org/2000/svg">
<path d="M12 22C13.0494 22 14.0722 21.6698 14.9236 21.0562C15.7749 20.4426 16.4116 19.5767 16.7434 18.5811C17.0753 17.5856 17.0855 16.5108 16.7726 15.5092C16.4597 14.5075 15.8395 13.6296 15 13V5C15 4.068 15 3.602 14.848 3.234C14.645 2.74417 14.2558 2.35498 13.766 2.152C13.4 2 12.932 2 12 2C11.068 2 10.601 2 10.234 2.152C9.74417 2.35498 9.35498 2.74417 9.152 3.234C9 3.602 9 4.068 9 5V13C8.16047 13.6296 7.54033 14.5075 7.22743 15.5092C6.91453 16.5108 6.92473 17.5856 7.25658 18.5811C7.58844 19.5767 8.22512 20.4426 9.07645 21.0562C9.92778 21.6698 10.9506 22 12 22Z" stroke="#042024" stroke-width="1.5" stroke-linecap="round" stroke-linejoin="round"/>
<path d="M12 15C11.4696 15 10.9609 15.2107 10.5858 15.5858C10.2107 15.9609 10 16.4696 10 17C10 17.5304 10.2107 18.0391 10.5858 18.4142C10.9609 18.7893 11.4696 19 12 19C12.5304 19 13.0391 18.7893 13.4142 18.4142C13.7893 18.0391 14 17.5304 14 17C14 16.4696 13.7893 15.9609 13.4142 15.5858C13.0391 15.2107 12.5304 15 12 15ZM12 15V8" stroke="#042024" stroke-width="1.5" stroke-linecap="round" stroke-linejoin="round"/>
</svg>
